<svg width="172" height="46" viewBox="0 0 172 46" fill="none" xmlns="http://www.w3.org/2000/svg">
<g clip-path="url(#clip0_6210_525)">
<path d="M10.22 22.4466H1.04004V1.90458H9.23004C10.67 1.90458 11.84 2.08015 12.92 2.4313C13.91 2.78244 14.72 3.22137 15.26 3.74809C16.16 4.80153 16.7 6.03053 16.7 7.34733C16.7 8.92748 16.16 10.1565 15.08 10.9466C14.72 11.2099 14.45 11.3855 14.36 11.4733L13.64 11.8244C14.9 12.0878 15.98 12.7023 16.79 13.5802C17.6 14.458 17.96 15.5114 17.96 16.8282C17.96 18.2328 17.42 19.5496 16.43 20.6031C15.17 21.7443 13.1 22.4466 10.22 22.4466ZM5.72004 10.2443H7.97004C9.23004 10.2443 10.22 10.0687 10.85 9.80534C11.48 9.54198 11.84 8.92748 11.84 8.04962C11.84 7.17176 11.57 6.55725 10.94 6.20611C10.4 5.94275 9.41004 5.76717 7.97004 5.76717H5.72004V10.2443ZM5.72004 18.4962H8.96004C10.31 18.4962 11.3 18.3206 12.02 17.9695C12.65 17.6183 13.01 17.0038 13.01 16.0382C13.01 15.0725 12.65 14.458 11.93 14.1947C11.21 13.9313 10.04 13.7557 8.51004 13.7557H5.72004V18.4962ZM36.23 22.4466L34.25 18.0573H25.43L23.45 22.4466H18.5L27.59 1.90458H32.09L41.18 22.4466H36.23ZM29.84 7.96183L27.23 13.9313H32.54L29.84 7.96183ZM51.71 18.3206C54.05 18.3206 55.94 17.4427 57.38 15.687L60.35 18.6718C57.92 21.3053 55.13 22.6221 51.89 22.6221C48.65 22.6221 45.95 21.6565 43.88 19.6374C41.81 17.6183 40.73 15.1603 40.73 12.0878C40.73 9.01527 41.81 6.46946 43.97 4.45038C46.13 2.4313 48.74 1.37786 51.8 1.37786C55.22 1.37786 58.1 2.69466 60.44 5.24046L57.56 8.48855C56.03 6.73282 54.23 5.76717 51.98 5.76717C50.18 5.76717 48.74 6.29389 47.48 7.43511C46.22 8.57633 45.59 10.0687 45.59 12C45.59 13.9313 46.22 15.4237 47.39 16.5649C48.56 17.7939 50 18.3206 51.71 18.3206ZM63.41 1.90458H68.09V10.3321L76.01 1.90458H81.86L73.49 10.9466C74.21 11.9122 75.56 13.7557 77.45 16.3893C79.43 19.0229 80.87 21.042 81.7701 22.3588H76.28L70.07 14.2824L68 16.5649V22.4466H63.32V1.90458H63.41ZM84.47 22.4466V1.90458H89.15V18.3206H98.15V22.4466H84.47ZM101.12 1.90458H105.8V22.4466H101.12V1.90458ZM123.89 1.90458H128.57V22.4466H123.89L113.9 9.62977V22.4466H109.22V1.90458H113.63L123.98 15.0725V1.90458H123.89ZM131.81 1.90458H136.49V10.3321L144.41 1.90458H150.26L141.89 10.9466C142.61 11.9122 143.96 13.7557 145.85 16.3893C147.83 19.0229 149.27 21.042 150.17 22.3588H144.68L138.47 14.2824L136.4 16.5649V22.4466H131.72V1.90458H131.81ZM167.72 11.5611H170.96C170.87 8.83969 169.7 6.29389 167.9 4.45038L165.65 6.64504C166.91 7.96183 167.63 9.62977 167.72 11.5611ZM160.07 19.9008V23.0611C162.86 22.9733 165.47 21.8321 167.36 20.0763L165.11 17.8817C163.76 19.0229 161.96 19.813 160.07 19.9008ZM159.26 4.01145V0.938931C156.47 1.02672 153.86 2.16794 151.97 3.92366L154.22 6.11832C155.57 4.88931 157.28 4.09924 159.26 4.01145ZM154.22 17.7939L151.97 19.9885C153.86 21.7443 156.47 22.7977 159.26 22.9733V19.813C157.28 19.813 155.57 19.0229 154.22 17.7939ZM153.59 6.64504L151.34 4.45038C149.54 6.29389 148.46 8.83969 148.28 11.5611H151.52C151.61 9.62977 152.42 7.96183 153.59 6.64504ZM151.52 12.3511H148.28C148.37 15.0725 149.54 17.6183 151.34 19.4618L153.59 17.2672C152.42 15.9504 151.61 14.1947 151.52 12.3511ZM167.72 12.3511C167.63 14.1947 166.82 15.9504 165.65 17.2672L167.9 19.4618C169.7 17.6183 170.87 15.0725 170.96 12.3511H167.72ZM165.11 6.03053L167.36 3.83588C165.47 2.08015 162.86 1.02672 160.07 0.851145V4.01145C161.96 4.09924 163.76 4.88931 165.11 6.03053Z" fill="#00BC98"/>
</g>
<path d="M20.5028 42.5L18.8409 37.0455H19.7216L20.9006 41.2216H20.9574L22.1222 37.0455H23.017L24.1676 41.2074H24.2244L25.4034 37.0455H26.2841L24.6222 42.5H23.7983L22.6051 38.3097H22.5199L21.3267 42.5H20.5028ZM27.392 42.5V37.0455H28.2301V42.5H27.392ZM27.8182 36.1364C27.6548 36.1364 27.514 36.0807 27.3956 35.9695C27.2796 35.8582 27.2216 35.7244 27.2216 35.5682C27.2216 35.4119 27.2796 35.2782 27.3956 35.1669C27.514 35.0556 27.6548 35 27.8182 35C27.9815 35 28.1212 35.0556 28.2372 35.1669C28.3556 35.2782 28.4148 35.4119 28.4148 35.5682C28.4148 35.7244 28.3556 35.8582 28.2372 35.9695C28.1212 36.0807 27.9815 36.1364 27.8182 36.1364ZM32.1373 37.0455V37.7557H29.3105V37.0455H32.1373ZM30.1344 35.7386H30.9725V40.9375C30.9725 41.1742 31.0068 41.3518 31.0755 41.4702C31.1465 41.5862 31.2364 41.6643 31.3453 41.7045C31.4566 41.7424 31.5738 41.7614 31.6969 41.7614C31.7892 41.7614 31.865 41.7566 31.9242 41.7472C31.9834 41.7353 32.0307 41.7259 32.0662 41.7188L32.2367 42.4716C32.1799 42.4929 32.1006 42.5142 31.9988 42.5355C31.897 42.5592 31.7679 42.571 31.6117 42.571C31.3749 42.571 31.1429 42.5201 30.9157 42.4183C30.6908 42.3165 30.5037 42.1615 30.3546 41.9531C30.2078 41.7448 30.1344 41.482 30.1344 41.1648V35.7386ZM34.3532 39.2188V42.5H33.5151V35.2273H34.3532V37.8977H34.4242C34.552 37.616 34.7438 37.3923 34.9995 37.2266C35.2575 37.0585 35.6008 36.9744 36.0293 36.9744C36.401 36.9744 36.7265 37.049 37.0059 37.1982C37.2852 37.3449 37.5018 37.571 37.6557 37.8764C37.812 38.1795 37.8901 38.5653 37.8901 39.0341V42.5H37.052V39.0909C37.052 38.6577 36.9396 38.3227 36.7147 38.0859C36.4921 37.8468 36.1832 37.7273 35.7878 37.7273C35.5132 37.7273 35.267 37.7853 35.0492 37.9013C34.8337 38.0173 34.6633 38.1866 34.5378 38.4091C34.4147 38.6316 34.3532 38.9015 34.3532 39.2188Z" fill="#646568"/>
<g clip-path="url(#clip1_6210_525)">
<path d="M120.357 36.9748C120.357 35.2557 119.294 34.0038 117.258 34.0038H110.679V42.9169H112.839V39.8753H115.398L117.904 42.9169H120.339V42.7229L117.904 39.8224C119.436 39.5139 120.357 38.403 120.357 36.9748ZM117.019 38.0768H112.848V35.8552H117.019C117.789 35.8552 118.285 36.2607 118.285 36.966C118.285 37.6889 117.807 38.0768 117.019 38.0768Z" fill="black"/>
<path d="M153.022 34.0038H150.994V37.3892H145.548V34.0038H143.361V42.9257H145.548V39.4081H150.994V42.9257H153.022V34.0038Z" fill="black"/>
<path d="M104.896 34.0038L102.488 41.5063H102.355L99.9377 34.0038H96.0859V42.9257H98.1491V35.5995H98.273L100.682 42.9257H104.002L106.419 35.5995H106.543V42.9257H108.668V34.0038H104.896Z" fill="black"/>
<path d="M81.3607 37.6537C80.5992 37.5743 79.1736 37.4421 78.4121 37.3627C77.6595 37.2834 77.2256 37.063 77.2256 36.5693C77.2256 36.0932 77.686 35.6965 79.5455 35.6965C81.1925 35.6965 82.7066 36.0491 84.026 36.6839V34.6914C82.7066 34.0655 81.2456 33.7569 79.4304 33.7569C76.8802 33.7569 75.1182 34.8149 75.1182 36.6133C75.1182 38.1297 76.1542 38.9584 78.2262 39.1877C78.9788 39.267 80.2539 39.3816 81.1482 39.4521C82.1222 39.5315 82.4056 39.8312 82.4056 40.272C82.4056 40.8804 81.7238 41.2506 79.9971 41.2506C78.2439 41.2506 76.4641 40.6776 75.1979 39.8753V41.9295C76.2161 42.6083 77.9694 43.1814 79.9263 43.1814C82.7066 43.1814 84.4953 42.1146 84.4953 40.2015C84.513 38.7557 83.5567 37.8829 81.3607 37.6537Z" fill="black"/>
<path d="M85.9297 34.0038V42.9257H94.2796V41.1008H87.9928V39.2935H94.1734V37.4862H87.9928V35.8287H94.2796V34.0038H85.9297Z" fill="black"/>
<path d="M138.89 37.6537C138.129 37.5743 136.703 37.4421 135.941 37.3627C135.189 37.2834 134.755 37.063 134.755 36.5693C134.755 36.0932 135.215 35.6965 137.075 35.6965C138.722 35.6965 140.236 36.0491 141.555 36.6839V34.6914C140.236 34.0655 138.775 33.7569 136.96 33.7569C134.41 33.7569 132.647 34.8149 132.647 36.6134C132.647 38.1297 133.683 38.9585 135.755 39.1877C136.508 39.267 137.783 39.3816 138.677 39.4522C139.652 39.5315 139.935 39.8312 139.935 40.2721C139.935 40.8804 139.253 41.2506 137.526 41.2506C135.773 41.2506 133.993 40.6776 132.727 39.8753V41.9295C133.745 42.6083 135.499 43.1814 137.456 43.1814C140.236 43.1814 142.025 42.1146 142.025 40.2015C142.042 38.7557 141.086 37.8829 138.89 37.6537Z" fill="black"/>
<path d="M129.017 34.0038V38.5705C129.017 40.2985 127.963 41.2506 126.378 41.2506C124.784 41.2506 123.74 40.3161 123.74 38.5441V34.0038H121.588V38.3413C121.588 41.5768 123.616 43.1814 126.414 43.1814C129.097 43.1814 131.178 41.6474 131.178 38.4471V34.0038H129.017Z" fill="black"/>
<path d="M67.7152 38.4118C67.7152 38.8438 67.4939 38.9144 66.9449 38.9144C66.3605 38.9144 66.2542 38.8174 66.1922 38.3766C66.0771 37.2569 65.3156 36.3048 64.0405 36.199C63.6332 36.1637 63.5358 36.0139 63.5358 35.5113C63.5358 35.0441 63.6067 34.8237 63.9697 34.8237C66.1834 34.8325 67.7152 36.6045 67.7152 38.4118ZM70.9383 38.4118C70.9383 35.0529 68.6538 31.5 63.3764 31.5H52.8925C52.68 31.5 52.5472 31.6058 52.5472 31.7997C52.5472 31.9055 52.6269 32.0025 52.6977 32.0554C53.0784 32.3552 53.6451 32.6902 54.3889 33.0605C55.115 33.4219 55.6817 33.6599 56.2484 33.8892C56.4875 33.9861 56.576 34.0919 56.576 34.2242C56.576 34.4093 56.4432 34.5239 56.1864 34.5239H47.863C47.6151 34.5239 47.5 34.6826 47.5 34.8413C47.5 34.9736 47.5443 35.0882 47.6594 35.2028C48.3323 35.9081 49.4126 36.7544 50.9799 37.733C52.3524 38.5882 54.0525 39.5139 55.4072 40.1574C55.6374 40.2632 55.7083 40.3867 55.7083 40.5189C55.6994 40.6688 55.5843 40.7922 55.3187 40.7922H51.5023C51.2898 40.7922 51.1658 40.9068 51.1658 41.0831C51.1658 41.1801 51.2455 41.3035 51.3518 41.4005C52.2195 42.1851 53.6097 43.0403 55.4604 43.8249C57.9308 44.8741 60.4367 45.5 63.2525 45.5C68.5918 45.5 70.9383 41.5239 70.9383 38.4118ZM63.9697 43.3753C61.2425 43.3753 58.958 41.1625 58.958 38.403C58.958 35.6877 61.2336 33.5013 63.9697 33.5013C66.7678 33.5013 68.9637 35.6788 68.9637 38.403C68.9549 41.1625 66.7678 43.3753 63.9697 43.3753Z" fill="#FF642D"/>
</g>
<defs>
<clipPath id="clip0_6210_525">
<rect width="171" height="23" fill="white" transform="translate(0.5 0.5)"/>
</clipPath>
<clipPath id="clip1_6210_525">
<rect width="106" height="14" fill="white" transform="translate(47.5 31.5)"/>
</clipPath>
</defs>
</svg>
